<?xml version="1.0" standalone="no"?><!DOCTYPE svg PUBLIC "-//W3C//DTD SVG 1.1//EN" "http://www.w3.org/Graphics/SVG/1.1/DTD/svg11.dtd"><svg t="1675824610663" class="icon" viewBox="0 0 1024 1024" version="1.1" xmlns="http://www.w3.org/2000/svg" p-id="2155" xmlns:xlink="http://www.w3.org/1999/xlink" width="128" height="128"><path d="M192 384h-64v512a64 64 0 0 0 64 64h512v-64H192z" fill="#1296db" p-id="2156"></path><path d="M832 64H320a64.19 64.19 0 0 0-64 64v640a64.19 64.19 0 0 0 64 64h512a64.19 64.19 0 0 0 64-64V128a64.19 64.19 0 0 0-64-64z m-79.36 384.78C736.78 542.82 687.36 597 649 617.71 607.35 640.18 576 640 576 640s-31.35 0.18-73-22.29c-38.4-20.73-87.82-74.89-103.68-168.94C384.51 360.72 384 310.86 384 310.86s42.12 6.6 107.52-11.82C546 283.68 576 256 576 256s30 27.68 84.48 43C725.88 317.46 768 310.86 768 310.86s-0.51 49.86-15.36 137.92z" fill="#1296db" p-id="2157"></path></svg>